<svg width="30" height="30" viewBox="0 0 30 30" fill="none" xmlns="http://www.w3.org/2000/svg">
<path d="M5 10.25C5 8.36438 5 7.42157 5.58579 6.83579C6.17157 6.25 7.11438 6.25 9 6.25H10.8431C11.6606 6.25 12.0694 6.25 12.4369 6.40224C12.8045 6.55448 13.0935 6.84351 13.6716 7.42157L15.0784 8.82843C15.6565 9.40649 15.9455 9.69552 16.3131 9.84776C16.6806 10 17.0894 10 17.9069 10H21C22.8856 10 23.8284 10 24.4142 10.5858C25 11.1716 25 12.1144 25 14V19.75C25 21.6356 25 22.5784 24.4142 23.1642C23.8284 23.75 22.8856 23.75 21 23.75H9C7.11438 23.75 6.17157 23.75 5.58579 23.1642C5 22.5784 5 21.6356 5 19.75V10.25Z" stroke="#33363F" stroke-width="2"/>
</svg>
