<svg width="159" height="62" viewBox="0 0 159 62" fill="none" xmlns="http://www.w3.org/2000/svg">
<g filter="url(#filter0_d_66_52)">
<path d="M15.8261 35.32C12.2794 35.32 9.43943 34.6533 7.30609 33.32C5.17276 31.96 4.10609 29.8933 4.10609 27.12C4.10609 25.6533 4.35943 24.5333 4.86609 23.76C5.37276 22.9867 6.11943 22.6 7.10609 22.6C7.82609 22.6 8.41276 22.7867 8.86609 23.16C9.31943 23.5333 9.54609 24.0133 9.54609 24.6C9.54609 25.1333 9.50609 25.6 9.42609 26C9.42609 26.1067 9.39943 26.2933 9.34609 26.56C9.31943 26.8267 9.30609 27.1067 9.30609 27.4C9.30609 28.6 9.90609 29.4933 11.1061 30.08C12.3328 30.6667 14.0394 30.96 16.2261 30.96C18.4928 30.96 20.2661 30.56 21.5461 29.76C22.8261 28.9333 23.4661 27.7867 23.4661 26.32C23.4661 25.4133 23.1728 24.64 22.5861 24C21.9994 23.3333 21.2661 22.7867 20.3861 22.36C19.5061 21.9067 18.2661 21.36 16.6661 20.72C14.6128 19.92 12.9328 19.16 11.6261 18.44C10.3461 17.72 9.23943 16.7467 8.30609 15.52C7.39943 14.2667 6.94609 12.72 6.94609 10.88C6.94609 8.96 7.45276 7.25333 8.46609 5.76C9.50609 4.26666 10.9861 3.10666 12.9061 2.28C14.8528 1.45333 17.1328 1.04 19.7461 1.04C21.6928 1.04 23.4794 1.33333 25.1061 1.92C26.7328 2.48 28.0261 3.34666 28.9861 4.52C29.9728 5.69333 30.4661 7.13333 30.4661 8.84C30.4661 10.52 30.2128 11.7867 29.7061 12.64C29.1994 13.4933 28.4528 13.92 27.4661 13.92C26.7728 13.92 26.1861 13.7067 25.7061 13.28C25.2528 12.8533 25.0261 12.3467 25.0261 11.76C25.0261 11.2533 25.0661 10.7867 25.1461 10.36C25.2261 9.56 25.2661 9.05333 25.2661 8.84C25.2661 7.72 24.7194 6.86666 23.6261 6.28C22.5328 5.69333 21.1728 5.4 19.5461 5.4C17.2528 5.4 15.4928 5.82667 14.2661 6.68C13.0661 7.50667 12.4661 8.68 12.4661 10.2C12.4661 11.2133 12.7728 12.08 13.3861 12.8C14.0261 13.52 14.8128 14.12 15.7461 14.6C16.6794 15.08 17.9861 15.6533 19.6661 16.32C21.6928 17.1467 23.3194 17.8933 24.5461 18.56C25.7728 19.2267 26.8128 20.1333 27.6661 21.28C28.5461 22.4267 28.9861 23.84 28.9861 25.52C28.9861 28.6667 27.7861 31.0933 25.3861 32.8C23.0128 34.48 19.8261 35.32 15.8261 35.32ZM36.2852 35.2C35.0852 35.2 34.0985 34.6533 33.3252 33.56C32.5785 32.44 32.2052 31.0533 32.2052 29.4C32.2052 27.4 32.3385 25.5733 32.6052 23.92C32.8718 22.24 33.3118 20.4667 33.9252 18.6C34.1918 17.8 34.5652 17.2267 35.0452 16.88C35.5252 16.5333 36.2852 16.36 37.3252 16.36C37.9118 16.36 38.3118 16.4533 38.5252 16.64C38.7652 16.8267 38.8852 17.1067 38.8852 17.48C38.8852 17.6933 38.7385 18.4133 38.4452 19.64C38.1785 20.6267 37.9652 21.52 37.8052 22.32C37.2718 25.12 37.0052 26.9867 37.0052 27.92C37.0052 28.48 37.0718 28.88 37.2052 29.12C37.3385 29.3333 37.5518 29.44 37.8452 29.44C38.2452 29.44 38.7385 29.04 39.3252 28.24C39.9385 27.44 40.5785 26.2267 41.2452 24.6C41.9385 22.9733 42.6052 20.9733 43.2452 18.6C43.4585 17.8 43.7785 17.2267 44.2052 16.88C44.6585 16.5333 45.3252 16.36 46.2052 16.36C46.8185 16.36 47.2452 16.44 47.4852 16.6C47.7252 16.7333 47.8452 17 47.8452 17.4C47.8452 18.0667 47.5118 19.8933 46.8452 22.88C46.0985 26.2933 45.7252 28.4 45.7252 29.2C45.7252 29.7067 45.8318 30.1067 46.0452 30.4C46.2585 30.6667 46.5385 30.8 46.8852 30.8C47.4185 30.8 48.0452 30.48 48.7652 29.84C49.5118 29.1733 50.4985 28.1067 51.7252 26.64C52.0452 26.2667 52.4052 26.08 52.8052 26.08C53.1518 26.08 53.4185 26.24 53.6052 26.56C53.8185 26.88 53.9252 27.32 53.9252 27.88C53.9252 28.9467 53.6718 29.7733 53.1652 30.36C52.0185 31.7733 50.7785 32.9333 49.4452 33.84C48.1385 34.7467 46.6452 35.2 44.9652 35.2C43.6852 35.2 42.7385 34.7067 42.1252 33.72C41.5385 32.7333 41.2452 31.3467 41.2452 29.56C40.7918 31.3733 40.1118 32.7733 39.2052 33.76C38.2985 34.72 37.3252 35.2 36.2852 35.2ZM72.0417 26.08C72.3884 26.08 72.6551 26.24 72.8417 26.56C73.0551 26.88 73.1617 27.32 73.1617 27.88C73.1617 28.9467 72.9084 29.7733 72.4017 30.36C71.2551 31.7733 70.0151 32.9333 68.6817 33.84C67.3751 34.7467 65.8817 35.2 64.2017 35.2C62.7884 35.2 61.6417 34.6933 60.7617 33.68C59.2417 34.6667 57.6551 35.1733 56.0017 35.2C55.6551 40.3467 54.8684 44.64 53.6417 48.08C52.4151 51.5467 50.6151 53.28 48.2417 53.28C46.8017 53.28 45.7351 52.76 45.0417 51.72C44.3484 50.68 44.0017 49.24 44.0017 47.4C44.0017 44.7867 44.6017 41.7333 45.8017 38.24C47.0017 34.7733 48.8551 30.9467 51.3617 26.76C51.3617 22.8667 51.3351 20.16 51.2817 18.64C51.2551 17.8667 51.5617 17.2533 52.2017 16.8C52.8417 16.3467 53.6417 16.12 54.6017 16.12C55.1617 16.12 55.5617 16.24 55.8017 16.48C56.0684 16.6933 56.2151 17.1333 56.2417 17.8C56.2417 18.4667 56.2551 18.96 56.2817 19.28C57.1351 18.2133 57.9751 17.4533 58.8017 17C59.6284 16.52 60.5084 16.28 61.4417 16.28C62.9351 16.28 64.1484 16.88 65.0817 18.08C66.0417 19.28 66.5217 20.8533 66.5217 22.8C66.5217 24.2133 66.2951 25.5867 65.8417 26.92C65.3884 28.2533 64.7617 29.4667 63.9617 30.56C64.5217 30.72 64.9884 30.8 65.3617 30.8C66.2417 30.8 67.0817 30.48 67.8817 29.84C68.6817 29.2 69.7084 28.1333 70.9617 26.64C71.2817 26.2667 71.6417 26.08 72.0417 26.08ZM56.2017 31.36C57.1617 31.1467 58.0417 30.6267 58.8417 29.8C59.6684 28.9467 60.3217 27.9067 60.8017 26.68C61.2817 25.4267 61.5217 24.12 61.5217 22.76C61.5217 21.96 61.3617 21.36 61.0417 20.96C60.7217 20.5333 60.2951 20.32 59.7617 20.32C58.8017 20.32 57.6417 21.3333 56.2817 23.36C56.2551 24.5333 56.2417 26.2533 56.2417 28.52C56.2417 29.7467 56.2284 30.6933 56.2017 31.36ZM48.5617 49.36C49.2817 49.36 49.8817 47.7867 50.3617 44.64C50.8417 41.52 51.1484 37.6267 51.2817 32.96C50.1351 35.6267 49.2284 38.1733 48.5617 40.6C47.8951 43.0267 47.5617 45.0667 47.5617 46.72C47.5617 47.5733 47.6684 48.2267 47.8817 48.68C48.0684 49.1333 48.2951 49.36 48.5617 49.36ZM87.7795 26.08C88.1262 26.08 88.3929 26.24 88.5795 26.56C88.7929 26.88 88.8995 27.32 88.8995 27.88C88.8995 28.9467 88.6462 29.7733 88.1395 30.36C87.1529 31.56 85.7529 32.6667 83.9395 33.68C82.1529 34.6933 80.2329 35.2 78.1795 35.2C75.3795 35.2 73.2062 34.44 71.6595 32.92C70.1129 31.4 69.3395 29.32 69.3395 26.68C69.3395 24.84 69.7262 23.1333 70.4995 21.56C71.2729 19.96 72.3395 18.6933 73.6995 17.76C75.0862 16.8267 76.6462 16.36 78.3795 16.36C79.9262 16.36 81.1662 16.8267 82.0995 17.76C83.0329 18.6667 83.4995 19.9067 83.4995 21.48C83.4995 23.32 82.8329 24.9067 81.4995 26.24C80.1929 27.5467 77.9662 28.5867 74.8195 29.36C75.4862 30.5867 76.7529 31.2 78.6195 31.2C79.8195 31.2 81.1795 30.7867 82.6995 29.96C84.2462 29.1067 85.5795 28 86.6995 26.64C87.0195 26.2667 87.3795 26.08 87.7795 26.08ZM77.6995 20.28C76.7129 20.28 75.8729 20.8533 75.1795 22C74.5129 23.1467 74.1795 24.5333 74.1795 26.16V26.24C75.7529 25.8667 76.9929 25.3067 77.8995 24.56C78.8062 23.8133 79.2595 22.9467 79.2595 21.96C79.2595 21.4533 79.1129 21.0533 78.8195 20.76C78.5529 20.44 78.1795 20.28 77.6995 20.28ZM96.8027 35.32C93.256 35.32 90.416 34.6533 88.2827 33.32C86.1493 31.96 85.0827 29.8933 85.0827 27.12C85.0827 25.6533 85.336 24.5333 85.8427 23.76C86.3493 22.9867 87.096 22.6 88.0827 22.6C88.8027 22.6 89.3893 22.7867 89.8427 23.16C90.296 23.5333 90.5227 24.0133 90.5227 24.6C90.5227 25.1333 90.4827 25.6 90.4027 26C90.4027 26.1067 90.376 26.2933 90.3227 26.56C90.296 26.8267 90.2827 27.1067 90.2827 27.4C90.2827 28.6 90.8827 29.4933 92.0827 30.08C93.3093 30.6667 95.016 30.96 97.2027 30.96C99.4693 30.96 101.243 30.56 102.523 29.76C103.803 28.9333 104.443 27.7867 104.443 26.32C104.443 25.4133 104.149 24.64 103.563 24C102.976 23.3333 102.243 22.7867 101.363 22.36C100.483 21.9067 99.2427 21.36 97.6427 20.72C95.5893 19.92 93.9093 19.16 92.6027 18.44C91.3227 17.72 90.216 16.7467 89.2827 15.52C88.376 14.2667 87.9227 12.72 87.9227 10.88C87.9227 8.96 88.4293 7.25333 89.4427 5.76C90.4827 4.26666 91.9627 3.10666 93.8827 2.28C95.8293 1.45333 98.1093 1.04 100.723 1.04C102.669 1.04 104.456 1.33333 106.083 1.92C107.709 2.48 109.003 3.34666 109.963 4.52C110.949 5.69333 111.443 7.13333 111.443 8.84C111.443 10.52 111.189 11.7867 110.683 12.64C110.176 13.4933 109.429 13.92 108.443 13.92C107.749 13.92 107.163 13.7067 106.683 13.28C106.229 12.8533 106.003 12.3467 106.003 11.76C106.003 11.2533 106.043 10.7867 106.123 10.36C106.203 9.56 106.243 9.05333 106.243 8.84C106.243 7.72 105.696 6.86666 104.603 6.28C103.509 5.69333 102.149 5.4 100.523 5.4C98.2293 5.4 96.4693 5.82667 95.2427 6.68C94.0427 7.50667 93.4427 8.68 93.4427 10.2C93.4427 11.2133 93.7493 12.08 94.3627 12.8C95.0027 13.52 95.7893 14.12 96.7227 14.6C97.656 15.08 98.9627 15.6533 100.643 16.32C102.669 17.1467 104.296 17.8933 105.523 18.56C106.749 19.2267 107.789 20.1333 108.643 21.28C109.523 22.4267 109.963 23.84 109.963 25.52C109.963 28.6667 108.763 31.0933 106.363 32.8C103.989 34.48 100.803 35.32 96.8027 35.32ZM118.422 13.72C117.302 13.72 116.462 13.4667 115.902 12.96C115.342 12.4267 115.062 11.6933 115.062 10.76C115.062 9.82667 115.422 9.05333 116.142 8.44C116.888 7.8 117.808 7.48 118.902 7.48C119.888 7.48 120.688 7.72 121.302 8.2C121.915 8.68 122.222 9.36 122.222 10.24C122.222 11.3067 121.875 12.16 121.182 12.8C120.488 13.4133 119.568 13.72 118.422 13.72ZM118.102 35.2C116.368 35.2 115.102 34.5867 114.302 33.36C113.528 32.1333 113.142 30.5067 113.142 28.48C113.142 27.28 113.288 25.7467 113.582 23.88C113.902 21.9867 114.302 20.2267 114.782 18.6C115.022 17.7467 115.342 17.16 115.742 16.84C116.142 16.52 116.782 16.36 117.662 16.36C119.022 16.36 119.702 16.8133 119.702 17.72C119.702 18.3867 119.448 19.9333 118.942 22.36C118.302 25.2933 117.982 27.28 117.982 28.32C117.982 29.12 118.088 29.7333 118.302 30.16C118.515 30.5867 118.875 30.8 119.382 30.8C119.862 30.8 120.462 30.4667 121.182 29.8C121.902 29.1333 122.862 28.08 124.062 26.64C124.382 26.2667 124.742 26.08 125.142 26.08C125.488 26.08 125.755 26.24 125.942 26.56C126.155 26.88 126.262 27.32 126.262 27.88C126.262 28.9467 126.008 29.7733 125.502 30.36C122.862 33.5867 120.395 35.2 118.102 35.2ZM140.865 26.08C141.212 26.08 141.479 26.24 141.665 26.56C141.879 26.88 141.985 27.32 141.985 27.88C141.985 28.9467 141.732 29.7733 141.225 30.36C140.079 31.7733 138.825 32.9333 137.465 33.84C136.105 34.7467 134.545 35.2 132.785 35.2C127.345 35.2 124.625 31.3733 124.625 23.72C124.625 22.5467 124.665 21.36 124.745 20.16H123.185C122.385 20.16 121.839 20.0133 121.545 19.72C121.279 19.4267 121.145 18.96 121.145 18.32C121.145 16.8267 121.745 16.08 122.945 16.08H125.225C125.679 13.1467 126.372 10.4667 127.305 8.04C128.239 5.61333 129.359 3.68 130.665 2.24C131.999 0.799998 133.425 0.079999 134.945 0.079999C136.065 0.079999 136.945 0.573332 137.585 1.56C138.225 2.54667 138.545 3.78667 138.545 5.28C138.545 9.41333 136.812 13.0133 133.345 16.08H137.825C138.252 16.08 138.559 16.1733 138.745 16.36C138.932 16.5467 139.025 16.8933 139.025 17.4C139.025 19.24 137.519 20.16 134.505 20.16H129.625C129.572 21.4933 129.545 22.5333 129.545 23.28C129.545 26.0533 129.865 28 130.505 29.12C131.172 30.24 132.212 30.8 133.625 30.8C134.772 30.8 135.785 30.4533 136.665 29.76C137.545 29.0667 138.585 28.0267 139.785 26.64C140.105 26.2667 140.465 26.08 140.865 26.08ZM133.865 3.92C133.465 3.92 133.012 4.42667 132.505 5.44C132.025 6.42667 131.559 7.81333 131.105 9.6C130.679 11.36 130.319 13.32 130.025 15.48C131.599 14.12 132.772 12.6 133.545 10.92C134.345 9.21333 134.745 7.66667 134.745 6.28C134.745 4.70667 134.452 3.92 133.865 3.92ZM153.049 27.28C153.395 27.28 153.662 27.44 153.849 27.76C154.062 28.08 154.169 28.52 154.169 29.08C154.169 30.04 153.942 30.8667 153.489 31.56C152.742 32.7067 151.755 33.6 150.529 34.24C149.329 34.88 147.889 35.2 146.209 35.2C143.649 35.2 141.662 34.44 140.249 32.92C138.835 31.3733 138.129 29.2933 138.129 26.68C138.129 24.84 138.515 23.1333 139.289 21.56C140.062 19.96 141.129 18.6933 142.489 17.76C143.875 16.8267 145.435 16.36 147.169 16.36C148.715 16.36 149.955 16.8267 150.889 17.76C151.822 18.6667 152.289 19.9067 152.289 21.48C152.289 23.32 151.622 24.9067 150.289 26.24C148.982 27.5467 146.742 28.5867 143.569 29.36C144.209 30.5867 145.289 31.2 146.809 31.2C147.902 31.2 148.795 30.9467 149.489 30.44C150.209 29.9333 151.035 29.08 151.969 27.88C152.289 27.48 152.649 27.28 153.049 27.28ZM146.489 20.28C145.502 20.28 144.662 20.8533 143.969 22C143.302 23.1467 142.969 24.5333 142.969 26.16V26.24C144.542 25.8667 145.782 25.3067 146.689 24.56C147.595 23.8133 148.049 22.9467 148.049 21.96C148.049 21.4533 147.902 21.0533 147.609 20.76C147.342 20.44 146.969 20.28 146.489 20.28Z" fill="black"/>
</g>
<defs>
<filter id="filter0_d_66_52" x="0.105957" y="0.0799866" width="158.062" height="61.2" filterUnits="userSpaceOnUse" color-interpolation-filters="sRGB">
<feFlood flood-opacity="0" result="BackgroundImageFix"/>
<feColorMatrix in="SourceAlpha" type="matrix" values="0 0 0 0 0 0 0 0 0 0 0 0 0 0 0 0 0 0 127 0" result="hardAlpha"/>
<feOffset dy="4"/>
<feGaussianBlur stdDeviation="2"/>
<feComposite in2="hardAlpha" operator="out"/>
<feColorMatrix type="matrix" values="0 0 0 0 0 0 0 0 0 0 0 0 0 0 0 0 0 0 0.25 0"/>
<feBlend mode="normal" in2="BackgroundImageFix" result="effect1_dropShadow_66_52"/>
<feBlend mode="normal" in="SourceGraphic" in2="effect1_dropShadow_66_52" result="shape"/>
</filter>
</defs>
</svg>
