<svg width="30" height="30" viewBox="0 0 30 30" fill="none" xmlns="http://www.w3.org/2000/svg">
<path d="M26.25 15C26.25 12.6494 25.5137 10.3578 24.1445 8.44713C22.7753 6.53644 20.8421 5.10262 18.6162 4.34704C16.3903 3.59146 13.9837 3.55207 11.7343 4.23442C9.4849 4.91677 7.50574 6.28657 6.07478 8.15143C4.64381 10.0163 3.83293 12.2826 3.75602 14.6319C3.67911 16.9813 4.34004 19.2957 5.64597 21.2502C6.9519 23.2046 8.83723 24.7009 11.0372 25.5289C13.2371 26.3569 15.6412 26.475 17.9117 25.8667" stroke="#33363F" stroke-width="2" stroke-linecap="round"/>
<circle cx="15" cy="15" r="5" stroke="#33363F" stroke-width="2"/>
<path d="M20 11.25V16.875C20 18.6009 21.3991 20 23.125 20V20C24.8509 20 26.25 18.6009 26.25 16.875V15" stroke="#33363F" stroke-width="2" stroke-linecap="round"/>
</svg>
