<svg width="30" height="30" viewBox="0 0 30 30" fill="none" xmlns="http://www.w3.org/2000/svg">
<path d="M17.6702 4.2018L16.6751 4.3013V4.3013L17.6702 4.2018ZM17.3238 2.81529L16.595 3.5L16.595 3.5L17.3238 2.81529ZM18.3408 6.62487L17.8513 7.49687L17.8513 7.49687L18.3408 6.62487ZM18.5598 6.71559L18.2893 7.67832H18.2893L18.5598 6.71559ZM20.7473 5.47641L20.1141 4.70246V4.70246L20.7473 5.47641ZM21.9726 4.74092L22.0038 5.74043L21.9726 4.74092ZM22.1343 4.74899L22.2648 3.75754L22.2648 3.75754L22.1343 4.74899ZM23.2804 5.60275L22.5733 6.30985L22.5733 6.30986L23.2804 5.60275ZM24.3972 6.71958L23.6901 7.42669L24.3972 6.71958ZM25.251 7.86564L26.2424 7.73517L26.2424 7.73515L25.251 7.86564ZM25.259 8.02731L26.2585 8.0585V8.05847L25.259 8.02731ZM24.5235 9.25263L25.2306 9.95973L25.2659 9.92447L25.2975 9.88587L24.5235 9.25263ZM24.5235 9.25264L23.8164 8.54553L23.7811 8.5808L23.7496 8.6194L24.5235 9.25264ZM23.2843 11.4402L22.3216 11.7107L22.3216 11.7107L23.2843 11.4402ZM23.375 11.6592L24.2471 11.1697L24.2471 11.1697L23.375 11.6592ZM25.7982 12.3298L25.6987 13.3249H25.6987L25.7982 12.3298ZM27.1847 12.6762L26.5 13.405L26.5 13.405L27.1847 12.6762ZM27.2933 12.7962L26.5 13.405L26.5 13.405L27.2933 12.7962ZM27.2934 17.2037L28.0868 17.8124L28.0868 17.8124L27.2934 17.2037ZM27.1846 17.3239L27.8693 18.0528L27.8693 18.0528L27.1846 17.3239ZM25.7983 17.6702L25.6988 16.6751H25.6988L25.7983 17.6702ZM23.3756 18.3405L22.5038 17.8508V17.8508L23.3756 18.3405ZM23.2847 18.56L22.322 18.2897L22.322 18.2897L23.2847 18.56ZM24.5237 20.747L23.7498 21.3802L24.5237 20.747ZM25.2591 21.972L26.2586 21.9406L26.2586 21.9406L25.2591 21.972ZM25.251 22.134L26.2424 22.2646L26.2424 22.2646L25.251 22.134ZM22.1344 25.2505L22.2649 26.2419L22.2649 26.2419L22.1344 25.2505ZM21.9727 25.2585L22.0039 24.259L22.0039 24.259L21.9727 25.2585ZM20.7474 24.523L20.1142 25.297L20.7474 24.523ZM18.5599 23.2839L18.8303 24.2466L18.8303 24.2466L18.5599 23.2839ZM18.3408 23.3746L17.8513 22.5026L17.8513 22.5026L18.3408 23.3746ZM17.6702 25.7979L16.6752 25.6984V25.6984L17.6702 25.7979ZM17.3237 27.1848L16.595 26.5L16.595 26.5L17.3237 27.1848ZM17.2039 27.2932L16.595 26.5L16.595 26.5L17.2039 27.2932ZM12.7962 27.2933L13.405 26.5L13.405 26.5L12.7962 27.2933ZM12.6762 27.1847L13.405 26.5L13.405 26.5L12.6762 27.1847ZM12.3298 25.7982L11.3348 25.8977L12.3298 25.7982ZM11.6592 23.3751L12.1486 22.503L12.1486 22.503L11.6592 23.3751ZM11.4402 23.2844L11.7108 22.3216L11.7107 22.3216L11.4402 23.2844ZM9.25259 24.5236L9.88583 25.2975L9.88583 25.2975L9.25259 24.5236ZM8.02723 25.2591L7.99607 24.2596H7.99606L8.02723 25.2591ZM7.8656 25.251L7.73513 26.2425H7.73513L7.8656 25.251ZM6.71951 24.3972L7.42662 23.6901V23.6901L6.71951 24.3972ZM5.60271 23.2804L4.8956 23.9875L4.8956 23.9875L5.60271 23.2804ZM4.74893 22.1344L5.74038 22.0039L5.74038 22.0039L4.74893 22.1344ZM4.74086 21.9727L5.74038 22.0039L5.74038 22.0039L4.74086 21.9727ZM5.47638 20.7474L4.70242 20.1141H4.70242L5.47638 20.7474ZM6.71558 18.5598L7.6783 18.2893V18.2893L6.71558 18.5598ZM6.62486 18.3408L5.75285 18.8303L5.75285 18.8303L6.62486 18.3408ZM4.20179 17.6702L4.30129 16.6751H4.30129L4.20179 17.6702ZM2.81529 17.3238L3.5 16.595L3.5 16.595L2.81529 17.3238ZM2.70667 17.2038L1.91333 17.8126L1.91333 17.8126L2.70667 17.2038ZM2.5 15.7897H3.5H2.5ZM2.5 14.2104H1.5H2.5ZM2.70674 12.7961L1.91349 12.1872H1.91349L2.70674 12.7961ZM2.8152 12.6763L3.5 13.405L3.5 13.405L2.8152 12.6763ZM4.20194 12.3298L4.10244 11.3348H4.10244L4.20194 12.3298ZM6.62542 11.659L5.75332 11.1697L5.75332 11.1697L6.62542 11.659ZM6.716 11.4403L5.75332 11.1697L5.75332 11.1697L6.716 11.4403ZM5.4766 9.25227L6.25055 8.61904L5.4766 9.25227ZM4.74092 8.02656L5.74043 7.99556L4.74092 8.02656ZM4.74896 7.86525L5.74043 7.99556V7.99556L4.74896 7.86525ZM5.60292 6.71886L4.89581 6.01175L4.89581 6.01175L5.60292 6.71886ZM6.71957 5.60221L7.42667 6.30932V6.30932L6.71957 5.60221ZM7.86565 4.74842L7.73519 3.75696L7.73519 3.75696L7.86565 4.74842ZM8.02729 4.74035L8.05846 3.74084L8.05846 3.74084L8.02729 4.74035ZM9.25275 5.47595L9.88598 4.702V4.70199L9.25275 5.47595ZM11.4401 6.71515L11.7104 7.67792L11.7104 7.67792L11.4401 6.71515ZM11.6594 6.62429L12.1491 7.49621L12.1491 7.4962L11.6594 6.62429ZM12.3298 4.20163L13.3249 4.30114V4.30114L12.3298 4.20163ZM12.6761 2.81539L13.405 3.5L13.405 3.49999L12.6761 2.81539ZM12.7963 2.70659L13.405 3.5L13.405 3.5L12.7963 2.70659ZM17.2038 2.70667L16.595 3.5L16.595 3.5L17.2038 2.70667ZM18.6652 4.1023C18.6296 3.74608 18.5959 3.39396 18.5328 3.10393C18.4648 2.79141 18.3414 2.43792 18.0526 2.13059L16.595 3.5C16.5387 3.44009 16.5505 3.40015 16.5786 3.52917C16.6115 3.6807 16.6348 3.89813 16.6751 4.3013L18.6652 4.1023ZM18.8303 5.75286C18.9804 5.83713 18.9377 5.94742 18.8628 5.63008C18.7888 5.31708 18.7405 4.85493 18.6652 4.10229L16.6751 4.3013C16.7444 4.99424 16.8045 5.61626 16.9163 6.08972C17.0271 6.55884 17.2474 7.15789 17.8513 7.49687L18.8303 5.75286ZM18.8303 5.75286L18.8303 5.75286L17.8513 7.49687C17.9896 7.57451 18.1366 7.63542 18.2893 7.67832L18.8303 5.75286ZM20.1141 4.70246C19.5287 5.18142 19.1677 5.47401 18.8941 5.64307C18.6167 5.81448 18.6645 5.7063 18.8303 5.75286L18.2893 7.67832C18.956 7.86562 19.5354 7.59783 19.9455 7.34445C20.3593 7.08872 20.8416 6.69135 21.3806 6.25037L20.1141 4.70246ZM21.9414 3.74141C21.52 3.75456 21.1827 3.91723 20.9137 4.09013C20.6639 4.25058 20.3912 4.47576 20.1141 4.70246L21.3806 6.25037C21.6942 5.9938 21.8644 5.85653 21.9948 5.7727C22.1059 5.70132 22.086 5.73787 22.0038 5.74043L21.9414 3.74141ZM22.2648 3.75754C22.1576 3.74343 22.0495 3.73804 21.9414 3.74141L22.0038 5.74043L22.2648 3.75754ZM23.9875 4.89564C23.7343 4.64251 23.4853 4.3913 23.2528 4.2068C23.0023 4.00798 22.6829 3.81257 22.2648 3.75754L22.0038 5.74043C21.9223 5.72971 21.9061 5.69135 22.0096 5.77343C22.131 5.86982 22.2867 6.02335 22.5733 6.30985L23.9875 4.89564ZM25.1043 6.01248L23.9875 4.89564L22.5733 6.30986L23.6901 7.42669L25.1043 6.01248ZM26.2424 7.73515C26.1874 7.31707 25.992 6.99768 25.7932 6.74714C25.6087 6.51464 25.3574 6.26562 25.1043 6.01248L23.6901 7.42669C23.9766 7.7132 24.1301 7.86892 24.2265 7.99038C24.3086 8.09382 24.2702 8.07763 24.2595 7.99613L26.2424 7.73515ZM26.2585 8.05847C26.2619 7.95044 26.2565 7.84232 26.2424 7.73517L24.2595 7.9961L24.2595 7.99615L26.2585 8.05847ZM25.2975 9.88587C25.5242 9.60879 25.7494 9.33601 25.9098 9.0863C26.0827 8.81722 26.2454 8.47998 26.2585 8.0585L24.2595 7.99612C24.2621 7.91395 24.2986 7.89403 24.2273 8.00512C24.1434 8.13557 24.0062 8.30579 23.7496 8.61939L25.2975 9.88587ZM25.2306 9.95975L25.2306 9.95973L23.8164 8.54552L23.8164 8.54553L25.2306 9.95975ZM24.2471 11.1697C24.2936 11.3355 24.1854 11.3833 24.3569 11.1059C24.5259 10.8323 24.8185 10.4713 25.2975 9.88588L23.7496 8.6194C23.3086 9.15838 22.9112 9.64069 22.6555 10.0545C22.4021 10.4646 22.1343 11.044 22.3216 11.7107L24.2471 11.1697ZM24.2471 11.1697L24.2471 11.1697L22.3216 11.7107C22.3645 11.8634 22.4254 12.0104 22.503 12.1487L24.2471 11.1697ZM25.8977 11.3348C25.145 11.2595 24.6829 11.2111 24.3699 11.1372C24.0525 11.0623 24.1628 11.0196 24.2471 11.1697L22.503 12.1487C22.842 12.7526 23.4411 12.9729 23.9102 13.0837C24.3837 13.1955 25.0057 13.2556 25.6987 13.3249L25.8977 11.3348ZM27.8694 11.9474C27.5621 11.6586 27.2086 11.5352 26.8961 11.4672C26.606 11.4041 26.2539 11.3704 25.8977 11.3348L25.6987 13.3249C26.1019 13.3652 26.3193 13.3885 26.4708 13.4214C26.5999 13.4495 26.5599 13.4613 26.5 13.405L27.8694 11.9474ZM28.0866 12.1874C28.0209 12.1016 27.9482 12.0214 27.8694 11.9474L26.5 13.405L26.5 13.405L28.0866 12.1874ZM28.5 14.2103C28.5 13.8523 28.5015 13.4986 28.4676 13.2037C28.431 12.8859 28.3434 12.5219 28.0866 12.1874L26.5 13.405C26.45 13.3398 26.4656 13.3012 26.4807 13.4324C26.4985 13.5864 26.5 13.8051 26.5 14.2103H28.5ZM28.5 15.7899V14.2103H26.5V15.7899H28.5ZM28.0868 17.8124C28.3434 17.4779 28.4311 17.1139 28.4676 16.7963C28.5015 16.5014 28.5 16.1478 28.5 15.7899H26.5C26.5 16.195 26.4985 16.4136 26.4807 16.5676C26.4656 16.6988 26.45 16.6602 26.5 16.595L28.0868 17.8124ZM27.8693 18.0528C27.9481 17.9787 28.0209 17.8983 28.0868 17.8124L26.5 16.595L26.5 16.595L27.8693 18.0528ZM25.8978 18.6652C26.254 18.6296 26.606 18.5959 26.896 18.5328C27.2085 18.4649 27.5619 18.3414 27.8693 18.0528L26.5 16.595C26.5599 16.5387 26.5998 16.5505 26.4708 16.5786C26.3193 16.6115 26.1019 16.6348 25.6988 16.6751L25.8978 18.6652ZM24.2475 18.8302C24.1632 18.9803 24.053 18.9376 24.3703 18.8627C24.6833 18.7888 25.1453 18.7405 25.8978 18.6652L25.6988 16.6751C25.006 16.7444 24.3841 16.8045 23.9107 16.9162C23.4417 17.027 22.8428 17.2472 22.5038 17.8508L24.2475 18.8302ZM24.2475 18.8302L24.2475 18.8302L22.5038 17.8508C22.4259 17.9894 22.3649 18.1367 22.322 18.2897L24.2475 18.8302ZM25.2977 20.1137C24.8188 19.5285 24.5263 19.1676 24.3573 18.8941C24.1859 18.6168 24.294 18.6645 24.2475 18.8302L22.322 18.2897C22.1349 18.9563 22.4026 19.5355 22.656 19.9455C22.9116 20.3592 23.3089 20.8414 23.7498 21.3802L25.2977 20.1137ZM26.2586 21.9406C26.2454 21.5192 26.0827 21.1821 25.9099 20.9131C25.7494 20.6635 25.5243 20.3907 25.2977 20.1137L23.7498 21.3802C24.0063 21.6937 24.1435 21.8639 24.2273 21.9943C24.2987 22.1054 24.2622 22.0855 24.2596 22.0033L26.2586 21.9406ZM26.2424 22.2646C26.2566 22.1572 26.262 22.0489 26.2586 21.9406L24.2596 22.0033L24.2596 22.0033L26.2424 22.2646ZM25.1045 23.9868C25.3576 23.7337 25.6087 23.4848 25.7932 23.2524C25.992 23.0019 26.1873 22.6826 26.2424 22.2646L24.2596 22.0033C24.2703 21.9218 24.3087 21.9057 24.2266 22.0091C24.1302 22.1305 23.9767 22.2862 23.6903 22.5726L25.1045 23.9868ZM23.9875 25.1038L25.1045 23.9868L23.6903 22.5726L22.5733 23.6896L23.9875 25.1038ZM22.2649 26.2419C22.683 26.1869 23.0023 25.9915 23.2529 25.7926C23.4854 25.6081 23.7344 25.3569 23.9875 25.1038L22.5733 23.6896C22.2868 23.9761 22.1311 24.1296 22.0096 24.226C21.9062 24.3081 21.9224 24.2697 22.0039 24.259L22.2649 26.2419ZM21.9415 26.258C22.0496 26.2614 22.1577 26.256 22.2649 26.2419L22.0039 24.259L22.0039 24.259L21.9415 26.258ZM20.1142 25.297C20.3912 25.5237 20.664 25.7489 20.9137 25.9093C21.1828 26.0822 21.52 26.2449 21.9415 26.258L22.0039 24.259C22.0861 24.2616 22.106 24.2981 21.9949 24.2267C21.8644 24.1429 21.6942 24.0057 21.3806 23.7491L20.1142 25.297ZM18.8303 24.2466C18.6646 24.2931 18.6168 24.185 18.8942 24.3564C19.1678 24.5254 19.5288 24.818 20.1142 25.297L21.3806 23.7491C20.8417 23.3081 20.3594 22.9107 19.9455 22.655C19.5355 22.4016 18.9561 22.1338 18.2894 22.3211L18.8303 24.2466ZM18.8303 24.2466L18.8303 24.2466L18.2894 22.3211C18.1367 22.364 17.9896 22.4249 17.8513 22.5026L18.8303 24.2466ZM18.6652 25.8974C18.7405 25.1447 18.7889 24.6825 18.8628 24.3694C18.9378 24.052 18.9805 24.1623 18.8303 24.2466L17.8513 22.5026C17.2474 22.8416 17.0271 23.4407 16.9163 23.9098C16.8045 24.3833 16.7445 25.0054 16.6752 25.6984L18.6652 25.8974ZM18.0524 27.8696C18.3413 27.5623 18.4648 27.2087 18.5328 26.8961C18.5959 26.606 18.6296 26.2537 18.6652 25.8974L16.6752 25.6984C16.6348 26.1017 16.6115 26.3192 16.5786 26.4708C16.5505 26.5999 16.5387 26.5599 16.595 26.5L18.0524 27.8696ZM17.8128 28.0865C17.8984 28.0208 17.9786 27.9483 18.0524 27.8696L16.595 26.5L16.595 26.5L17.8128 28.0865ZM15.7895 28.5C16.1476 28.5 16.5014 28.5015 16.7963 28.4676C17.1142 28.431 17.4783 28.3433 17.8128 28.0865L16.595 26.5C16.6602 26.4499 16.6988 26.4656 16.5676 26.4807C16.4135 26.4985 16.1948 26.5 15.7895 26.5V28.5ZM14.2103 28.5H15.7895V26.5H14.2103V28.5ZM12.1874 28.0866C12.5219 28.3434 12.886 28.431 13.2037 28.4676C13.4986 28.5015 13.8523 28.5 14.2103 28.5V26.5C13.8051 26.5 13.5864 26.4985 13.4324 26.4807C13.3012 26.4656 13.3398 26.45 13.405 26.5L12.1874 28.0866ZM11.9474 27.8694C12.0214 27.9482 12.1016 28.0208 12.1874 28.0867L13.405 26.5L13.405 26.5L11.9474 27.8694ZM11.3348 25.8977C11.3704 26.2539 11.4041 26.606 11.4672 26.8961C11.5352 27.2086 11.6586 27.5621 11.9474 27.8694L13.405 26.5C13.4613 26.5599 13.4495 26.5999 13.4214 26.4708C13.3885 26.3193 13.3652 26.1019 13.3249 25.6987L11.3348 25.8977ZM11.1697 24.2471C11.0196 24.1628 11.0623 24.0525 11.1372 24.3699C11.2111 24.6829 11.2595 25.145 11.3348 25.8977L13.3249 25.6987C13.2556 25.0057 13.1955 24.3837 13.0837 23.9102C12.9729 23.4411 12.7526 22.842 12.1486 22.503L11.1697 24.2471ZM11.1697 24.2471L11.1697 24.2471L12.1486 22.503C12.0104 22.4254 11.8634 22.3645 11.7108 22.3216L11.1697 24.2471ZM9.88583 25.2975C10.4713 24.8185 10.8323 24.5259 11.1059 24.3569C11.3833 24.1855 11.3355 24.2936 11.1697 24.2471L11.7107 22.3216C11.044 22.1343 10.4646 22.4021 10.0545 22.6555C9.64067 22.9112 9.15836 23.3086 8.61936 23.7496L9.88583 25.2975ZM8.0584 26.2586C8.47989 26.2455 8.81715 26.0828 9.08624 25.9099C9.33595 25.7494 9.60875 25.5242 9.88583 25.2975L8.61936 23.7496C8.30575 24.0062 8.13552 24.1435 8.00506 24.2273C7.89397 24.2987 7.9139 24.2621 7.99607 24.2596L8.0584 26.2586ZM7.73513 26.2425C7.84226 26.2566 7.95037 26.262 8.0584 26.2586L7.99606 24.2596L7.99606 24.2596L7.73513 26.2425ZM6.0124 25.1043C6.26555 25.3575 6.51458 25.6087 6.74709 25.7932C6.99764 25.992 7.31704 26.1875 7.73513 26.2425L7.99607 24.2596C8.07757 24.2703 8.09376 24.3087 7.99033 24.2266C7.86886 24.1302 7.71314 23.9766 7.42662 23.6901L6.0124 25.1043ZM4.8956 23.9875L6.0124 25.1043L7.42662 23.6901L6.30982 22.5733L4.8956 23.9875ZM3.75748 22.2648C3.8125 22.6829 4.00792 23.0023 4.20674 23.2529C4.39125 23.4854 4.64246 23.7344 4.8956 23.9875L6.30982 22.5733C6.0233 22.2868 5.86977 22.1311 5.77338 22.0096C5.69129 21.9062 5.72965 21.9224 5.74038 22.0039L3.75748 22.2648ZM3.74135 21.9415C3.73798 22.0496 3.74337 22.1577 3.75748 22.2649L5.74038 22.0039L5.74038 22.0039L3.74135 21.9415ZM4.70242 20.1141C4.47572 20.3912 4.25053 20.664 4.09007 20.9137C3.91717 21.1828 3.7545 21.52 3.74135 21.9415L5.74038 22.0039C5.73781 22.0861 5.70126 22.106 5.77264 21.9949C5.85647 21.8644 5.99375 21.6942 6.25034 21.3806L4.70242 20.1141ZM5.75285 18.8303C5.70629 18.6645 5.81447 18.6167 5.64306 18.8941C5.474 19.1677 5.1814 19.5287 4.70242 20.1141L6.25034 21.3806C6.69132 20.8416 7.0887 20.3593 7.34444 19.9455C7.59782 19.5354 7.86562 18.956 7.6783 18.2893L5.75285 18.8303ZM5.75285 18.8303L5.75285 18.8303L7.6783 18.2893C7.63541 18.1366 7.5745 17.9896 7.49687 17.8513L5.75285 18.8303ZM4.10229 18.6652C4.85492 18.7405 5.31707 18.7888 5.63007 18.8628C5.94741 18.9377 5.83712 18.9804 5.75285 18.8303L7.49687 17.8513C7.15789 17.2474 6.55884 17.0271 6.08972 16.9163C5.61625 16.8045 4.99423 16.7444 4.30129 16.6751L4.10229 18.6652ZM2.13059 18.0527C2.43792 18.3414 2.79141 18.4648 3.10393 18.5328C3.39396 18.5959 3.74607 18.6296 4.10229 18.6652L4.30129 16.6751C3.89812 16.6348 3.68069 16.6115 3.52917 16.5786C3.40015 16.5505 3.44009 16.5387 3.5 16.595L2.13059 18.0527ZM1.91333 17.8126C1.97914 17.8983 2.0518 17.9786 2.13059 18.0527L3.5 16.595L3.5 16.595L1.91333 17.8126ZM1.5 15.7897C1.5 16.1477 1.49845 16.5014 1.53239 16.7963C1.56896 17.114 1.65662 17.4781 1.91333 17.8126L3.5 16.595C3.55005 16.6602 3.53437 16.6988 3.51928 16.5676C3.50155 16.4136 3.5 16.1949 3.5 15.7897H1.5ZM1.5 14.2104L1.5 15.7897H3.5L3.5 14.2104H1.5ZM1.91349 12.1872C1.65668 12.5218 1.56899 12.8859 1.5324 13.2037C1.49845 13.4986 1.5 13.8524 1.5 14.2104H3.5C3.5 13.8052 3.50155 13.5865 3.51928 13.4324C3.53439 13.3012 3.55006 13.3398 3.5 13.405L1.91349 12.1872ZM2.13041 11.9475C2.05175 12.0214 1.97921 12.1016 1.91349 12.1872L3.5 13.405L3.5 13.405L2.13041 11.9475ZM4.10244 11.3348C3.74616 11.3704 3.39397 11.4041 3.10389 11.4672C2.79131 11.5352 2.43776 11.6587 2.13041 11.9475L3.5 13.405C3.44008 13.4613 3.40013 13.4495 3.52918 13.4214C3.68073 13.3885 3.89819 13.3652 4.30145 13.3248L4.10244 11.3348ZM5.75332 11.1697C5.83757 11.0195 5.94792 11.0622 5.63052 11.1372C5.31747 11.2111 4.85522 11.2595 4.10244 11.3348L4.30145 13.3248C4.99452 13.2555 5.61667 13.1955 6.09022 13.0836C6.55943 12.9728 7.15858 12.7524 7.49752 12.1483L5.75332 11.1697ZM5.75332 11.1697L5.75332 11.1697L7.49752 12.1483C7.57501 12.0102 7.63581 11.8634 7.67867 11.711L5.75332 11.1697ZM4.70264 9.88551C5.18173 10.4711 5.4744 10.8322 5.6435 11.1058C5.81494 11.3833 5.70672 11.3354 5.75332 11.1697L7.67867 11.711C7.86615 11.0442 7.59832 10.4646 7.34489 10.0545C7.08911 9.64056 6.69165 9.15815 6.25055 8.61904L4.70264 9.88551ZM3.7414 8.05757C3.75448 8.47918 3.91717 8.81654 4.09012 9.08569C4.25061 9.33548 4.47587 9.60835 4.70264 9.88551L6.25055 8.61904C5.99389 8.30534 5.85657 8.13506 5.77272 8.00455C5.70131 7.89342 5.73789 7.91336 5.74043 7.99556L3.7414 8.05757ZM3.75749 7.73494C3.74343 7.84187 3.73805 7.94977 3.7414 8.05757L5.74043 7.99556V7.99556L3.75749 7.73494ZM4.89581 6.01175C4.6426 6.26497 4.39132 6.51406 4.20677 6.74663C4.0079 6.99724 3.81245 7.31673 3.75749 7.73494L5.74043 7.99556C5.72972 8.07708 5.69135 8.09328 5.77344 7.98982C5.86986 7.86832 6.02343 7.71256 6.31002 7.42597L4.89581 6.01175ZM6.01246 4.8951L4.89581 6.01175L6.31002 7.42597L7.42667 6.30932L6.01246 4.8951ZM7.73519 3.75696C7.31709 3.81198 6.99769 4.0074 6.74715 4.20623C6.51464 4.39074 6.26561 4.64196 6.01246 4.8951L7.42667 6.30932C7.71319 6.0228 7.86891 5.86926 7.99039 5.77287C8.09382 5.69078 8.07763 5.72914 7.99612 5.73987L7.73519 3.75696ZM8.05846 3.74084C7.95044 3.73747 7.84233 3.74286 7.73519 3.75696L7.99612 5.73987H7.99613L8.05846 3.74084ZM9.88598 4.70199C9.60887 4.47526 9.33605 4.25006 9.08633 4.08959C8.81724 3.91668 8.47997 3.75398 8.05846 3.74084L7.99612 5.73987C7.91393 5.7373 7.89401 5.70074 8.00513 5.77215C8.13562 5.85599 8.30587 5.9933 8.61951 6.24991L9.88598 4.70199ZM11.1698 5.75237C11.3355 5.70584 11.3833 5.814 11.1059 5.64257C10.8323 5.4735 10.4713 5.18092 9.88598 4.702L8.61951 6.24991C9.15845 6.69086 9.64069 7.08819 10.0545 7.34391C10.4645 7.59726 11.0437 7.86508 11.7104 7.67792L11.1698 5.75237ZM11.1698 5.75237L11.1698 5.75237L11.7104 7.67792C11.8633 7.63499 12.0106 7.57398 12.1491 7.49621L11.1698 5.75237ZM11.3348 4.10213C11.2596 4.85461 11.2112 5.31667 11.1373 5.62961C11.0624 5.9469 11.0197 5.83665 11.1698 5.75237L12.1491 7.4962C12.7528 7.15718 12.973 6.55824 13.0838 6.08921C13.1956 5.61583 13.2556 4.99393 13.3249 4.30114L11.3348 4.10213ZM11.9472 2.13078C11.6585 2.43808 11.5351 2.79151 11.4672 3.10397C11.4041 3.39394 11.3704 3.74599 11.3348 4.10213L13.3249 4.30114C13.3652 3.89804 13.3885 3.68066 13.4214 3.52917C13.4495 3.40017 13.4613 3.44009 13.405 3.5L11.9472 2.13078ZM12.1876 1.91318C12.1017 1.97908 12.0213 2.05185 11.9472 2.13078L13.405 3.49999L13.405 3.5L12.1876 1.91318ZM14.2101 1.5C13.8522 1.5 13.4986 1.49846 13.2037 1.53238C12.8861 1.56893 12.5221 1.65656 12.1876 1.91318L13.405 3.5C13.3398 3.55003 13.3012 3.53436 13.4324 3.51927C13.5864 3.50154 13.805 3.5 14.2101 3.5V1.5ZM15.7897 1.5H14.2101V3.5H15.7897V1.5ZM17.8126 1.91333C17.4781 1.65662 17.114 1.56896 16.7963 1.53239C16.5014 1.49845 16.1477 1.5 15.7897 1.5V3.5C16.1949 3.5 16.4136 3.50155 16.5676 3.51928C16.6988 3.53437 16.6602 3.55005 16.595 3.5L17.8126 1.91333ZM18.0527 2.13059C17.9786 2.0518 17.8984 1.97915 17.8126 1.91333L16.595 3.5L16.595 3.5L18.0527 2.13059ZM19 15C19 17.2091 17.2091 19 15 19V21C18.3137 21 21 18.3137 21 15H19ZM15 11C17.2091 11 19 12.7909 19 15H21C21 11.6863 18.3137 9 15 9V11ZM11 15C11 12.7909 12.7909 11 15 11V9C11.6863 9 9 11.6863 9 15H11ZM15 19C12.7909 19 11 17.2091 11 15H9C9 18.3137 11.6863 21 15 21V19Z" fill="#33363F"/>
</svg>
